<svg xmlns="http://www.w3.org/2000/svg" xmlns:xlink="http://www.w3.org/1999/xlink" version="1.1" id="layer" x="0px" y="0px" style="enable-background:new 0 0 652 652;" xml:space="preserve" viewBox="20.4 225.7 600 192.25">
<style type="text/css">
	.st0{fill:#878788;}
</style>
<path class="st0" d="M82.6,365l32.1-28l8.6-57.2l8.2-54.1L92,260.4c-2.2,2.3-4.6,23-5.3,46C85.8,327.6,84.5,352.2,82.6,365"/>
<path class="st0" d="M180.1,331.1c-17.9-11.5-38.3-25-48.4-33.2l7.9,41.9l45,36.3l42.5,34.4l-10.1-51.5  C216.2,355.8,199.6,343.3,180.1,331.1"/>
<path class="st0" d="M165,374.4l-39.7-14.1l-53.9,21l-51,19.7l49.7,16.9c3.1,0.8,22.2-7.4,42.5-18.2  C142.1,384.4,157.2,377.4,165,374.4"/>
<polygon class="st0" points="172.1,315.3 138.9,234.8 132.2,288.1 "/>
<polygon class="st0" points="130.4,398.7 215.6,412.3 174,379 "/>
<polygon class="st0" points="78.3,322.8 24.5,390.1 74.8,369.9 "/>
<path class="st0" d="M317,311.2c-0.6-2.4-1.2-4.7-1.9-7c-1.3-4.8-2.6-9.5-3.8-14.3c-1.5-5.5-2.9-11-4.5-16.5  c-0.2-0.6-0.7-1.2-1.2-1.5c-1-0.6-2.5-0.1-3,1.8c-3.3,12.3-6.6,24.6-9.9,36.8c-0.1,0.2,0,0.4,0,0.6H317z M337.7,352.3  c-2.4,0-4.7,0-7.1,0c-1.7,0-2.7-0.7-3.1-2.4c-2-7.5-4.1-15.1-6.1-22.7c-0.3-1-0.6-1.3-1.7-1.3c-10,0-20,0-30,0  c-0.8,0-1.2,0.2-1.4,1.1c-1.9,7.4-3.9,14.7-5.9,22c-0.7,2.6-1.5,3.3-4.2,3.3c-4.4,0-8.9,0-13.3,0c-0.5,0-1-0.1-1.4-0.2  c-1.4-0.4-1.9-1.3-1.5-2.7c2.2-7.5,4.4-15.1,6.6-22.6c4-13.6,7.9-27.2,11.9-40.9c1.6-5.4,3.1-10.8,4.7-16.2  c2.2-7.5,7.3-11.6,14.9-12.7c4.3-0.6,8.6-0.5,12.9,0.7c4.9,1.4,8.5,4.4,10.4,9.1c1.3,3.3,2.2,6.7,3.2,10.1  c2.6,8.9,5.1,17.7,7.7,26.6c3.2,10.8,6.3,21.6,9.5,32.4c1.2,4.2,2.5,8.4,3.7,12.6c0.7,2.4-0.2,3.6-2.7,3.6  C342.3,352.3,340,352.3,337.7,352.3"/>
<path class="st0" d="M402.8,337.8V331c0-8.3,0-16.5,0-24.8c0-2.8,0.7-3.5,3.5-3.5c4.2,0,8.5,0,12.8,0c2.3,0,3.3,0.9,3.3,3.2l0,41.4  c0,2.6-0.7,3.4-3.3,3.8c-8.3,1.4-16.7,2-25.2,2c-3.4,0-6.8,0.1-10.1-0.3c-7.9-0.9-15.1-3.8-21.1-9.1c-6.3-5.6-9.8-12.7-11-20.9  c-0.5-3.1-0.7-6.3-0.7-9.5c-0.1-6.9-0.1-13.8,0.1-20.7c0.1-5.1,1.2-10.1,3.2-14.9c4.4-10.3,12.4-16.4,22.9-19.5  c6.1-1.8,12.4-1.8,18.7-1.4c5,0.3,10,0.6,14.9,1c2.9,0.2,5.7,0.6,8.6,1.1c2.4,0.4,2.9,1,2.9,3.4c0,2.8,0,5.6,0,8.4  c0,1.1-0.6,1.8-1.7,1.9c-0.6,0.1-1.3,0.1-1.9,0.1c-5.4-0.2-10.7-0.6-16.1-0.7c-4.5-0.1-9-0.2-13.5-0.2c-8.3,0-14.5,4.9-16.8,12.8  c-1.1,3.7-1.5,7.4-1.5,11.2c0,6.6,0,13.2,0.1,19.8c0.1,5,1,9.9,3.6,14.2c3.3,5.4,8.3,8.2,14.6,8.2  C393.6,338.1,398.1,337.9,402.8,337.8"/>
<path class="st0" d="M556.7,296.5h1.5h35c0.5,0,1,0,1.6,0c2.2,0.1,3,1,3,3.2c0,2.7,0,5.5,0,8.2c0,1.7-0.9,2.7-2.6,2.8  c-0.4,0-0.7,0-1.1,0H558h-1.2c0,0.5-0.1,0.9-0.1,1.2c0,5.3,0,10.7,0,16c0,1.5,0.3,3,0.6,4.5c0.7,3,2.9,4.6,5.8,5.1  c1.9,0.3,3.8,0.5,5.7,0.5c9.1,0,18.1,0,27.2,0c2.6,0,3.4,0.9,3.5,3.5c0,2.4,0,4.7,0,7.1c0,1.8-0.6,2.5-2.4,2.7  c-8.1,1.3-16.3,1.8-24.5,1.8c-5.5,0-10.9,0-16.3-1.2c-5-1-9.6-2.9-13.2-6.7c-3.1-3.3-4.9-7.3-5.3-11.7c-0.5-4.8-0.5-9.6-0.6-14.4  c-0.1-12.5,0-25,0-37.5c0-4.6,0.8-9.1,3-13.2c2.3-4.3,6-7.3,10.5-9c4.2-1.6,8.6-2.5,13.1-2.6c6.6-0.1,13.3-0.2,19.9,0.1  c4.6,0.2,9.2,1,13.8,1.6c1.5,0.2,2,0.9,2,2.4c0,2.7,0,5.5,0,8.2c0,1.4-1.1,2.5-2.6,2.6c-0.3,0-0.6,0-0.9,0c-9.8,0-19.6,0-29.4,0  c-1.6,0-3.2,0.3-4.7,0.8c-3.3,1-4.7,3.6-4.9,6.7c-0.2,4.8-0.2,9.5-0.2,14.3C556.7,294.6,556.7,295.5,556.7,296.5"/>
<path class="st0" d="M469.9,295.2c0-11.3,0-22.6,0-33.9c0-2.3,1.1-3.6,3.8-3.5c4.1,0.2,8.2,0.1,12.3,0c2.6-0.1,3.6,1.1,3.6,3.5  c0,22.1,0,44.3,0,66.4c0,2,0.2,4,1,6c1,2.4,2.9,3.6,5.3,4c1.6,0.3,3.3,0.4,5,0.4c8.4,0,16.8,0,25.2,0c2.4,0,3.3,1,3.3,3.4  c0,2.4,0,4.9,0,7.3c0,1.5-0.4,2.1-1.9,2.4c-2.4,0.5-4.7,0.9-7.1,1c-5.6,0.4-11.3,0.9-16.9,1c-6.9,0.1-13.7-0.3-20.2-2.8  c-7.1-2.8-11.1-8.1-12.7-15.5c-1-4.5-0.7-9.1-0.7-13.7C469.8,312.6,469.8,303.9,469.9,295.2L469.9,295.2z"/>
<path class="st0" d="M436.1,305v-44.3c0-2,1-3,3-2.9c4.4,0,8.7,0,13.1,0c0.3,0,0.7,0,1,0c1.3,0,2.5,1.2,2.5,2.7  c0,10.8,0,21.6,0,32.4c0,18.3,0,36.6,0,54.8c0,0.7,0.1,1.5-0.1,2.2c-0.3,1.6-1.2,2.3-2.8,2.3c-4.7,0-9.3,0-14,0  c-1.6,0-2.9-1.1-2.9-2.9C436.1,334.6,436.1,319.8,436.1,305L436.1,305z"/>
<path class="st0" d="M458.8,386.5c0.1-0.5,0.3-0.9,0.4-1.4c2.1-8,4.2-15.9,6.2-23.9c0.2-0.8,0.5-1.1,1.4-1c0.8,0.1,1.7,0,2.7,0  c-0.2,0.7-0.3,1.3-0.4,1.9c-2.4,9.3-4.9,18.5-7.3,27.8c-0.2,0.9-0.5,1.4-1.5,1.2c-0.9-0.1-1.9-0.1-2.9,0c-1.3,0.2-1.7-0.4-1.9-1.5  c-1.8-8-3.7-15.9-5.5-23.9c-0.1-0.5-0.2-0.9-0.3-1.3c-0.1,0-0.2,0-0.3,0c-0.1,0.4-0.2,0.9-0.3,1.3c-1.9,8.2-3.8,16.3-5.7,24.5  c-0.2,0.7-0.5,1-1.2,0.9c-1.2-0.1-2.4-0.1-3.6,0c-0.9,0.1-1.2-0.2-1.4-1.1c-1.6-6.3-3.3-12.7-5-19c-0.9-3.5-1.9-7.1-2.8-10.7h3.9  c2.3,8.7,4.6,17.5,6.8,26.2c0.1,0,0.2,0,0.3,0c0.4-1.6,0.8-3.3,1.2-4.9c1.6-6.8,3.2-13.7,4.8-20.5c0.2-0.7,0.5-1,1.2-0.9  c1.2,0.1,2.4,0.1,3.7,0c0.7,0,1,0.2,1.2,0.9c0.9,4.1,1.9,8.1,2.9,12.2c1,4.2,2,8.3,3,12.5c0.1,0.2,0.2,0.5,0.2,0.7  C458.6,386.5,458.7,386.5,458.8,386.5"/>
<path class="st0" d="M364.5,367.1c-0.2,7.9-0.4,15.9-0.6,23.9h-3.8c0.4-10.2,0.7-20.4,1.1-30.7c1.6,0,3.1,0,4.7,0  c0.2,0,0.5,0.3,0.6,0.6c2.1,5.5,4.1,11,6.2,16.5c0.8,2.1,1.6,4.2,2.6,6.3c0.5-1.3,1-2.6,1.5-3.9c2.3-6.2,4.6-12.4,6.9-18.6  c0.3-0.7,0.6-1.1,1.4-1c1.3,0.1,2.6,0,4,0c0.3,10.3,0.7,20.5,1.1,30.7h-3.9c-0.2-8-0.4-15.9-0.6-23.9c-0.1,0-0.2-0.1-0.3-0.1  c-0.2,0.4-0.3,0.8-0.5,1.1c-2.2,5.9-4.5,11.8-6.6,17.8c-0.3,0.8-0.7,1.3-1.6,1.2c-1.1-0.1-2.1-0.1-3.2,0c-0.8,0.1-1.1-0.2-1.4-0.9  c-2.2-6-4.4-11.9-6.6-17.8c-0.2-0.4-0.3-0.9-0.5-1.3C364.7,367,364.6,367.1,364.5,367.1"/>
<path class="st0" d="M295,376.4c2.6,0,5,0,7.4,0c0.9,0,1.8-0.2,2.7-0.4c1.3-0.2,2.1-1.1,2.2-2.4c0.1-1.8,0.1-3.7,0.1-5.5  c0-2.9-1.2-4.1-4.1-4.2c-2.5,0-5,0-7.4,0c-0.3,0-0.6,0-1,0.1V376.4z M306.7,379.5c2.7,3.9,5.3,7.6,8,11.6c-1.5,0-2.9,0-4.2,0  c-0.3,0-0.7-0.4-0.9-0.7c-2.2-3.2-4.4-6.4-6.6-9.6c-0.4-0.6-0.9-0.9-1.6-0.9c-2.1,0.1-4.2,0-6.5,0v11.2c-1.3,0-2.5,0-3.6,0  c-0.2,0-0.4-0.3-0.5-0.5c-0.1-0.2,0-0.5,0-0.8c0-9.4,0-18.8,0-28.2c0-1.1,0.3-1.4,1.4-1.4c4.2,0.1,8.4-0.1,12.5,0.2  c4.5,0.2,6.7,2.6,6.9,7.2c0.1,1.7,0,3.5,0,5.2C311.5,376,310.2,378.4,306.7,379.5"/>
<path class="st0" d="M516.3,364v12.1c3.2,0,6.4,0.1,9.6,0c1.9-0.1,2.9-1.4,2.9-3.3c0-1.8,0-3.6,0-5.4c0-2-0.8-3.2-2.8-3.3  C522.8,363.9,519.6,364,516.3,364 M512.3,360.4c0.1-0.1,0.2-0.1,0.2-0.1c4.7,0,9.4-0.1,14.1,0.2c4.2,0.3,6.3,3,6.3,7.2  c0,1.6,0,3.3,0,4.9c-0.1,3.2-1.2,5.7-4.5,6.8c-0.1,0-0.2,0.1-0.3,0.3c2.6,3.8,5.2,7.5,7.9,11.5c-1.6,0-2.9,0-4.3,0  c-0.2,0-0.5-0.3-0.7-0.6c-2.1-3.1-4.3-6.2-6.4-9.3c-0.6-0.9-1.3-1.3-2.4-1.3c-2,0.1-3.9,0-6,0V391h-3.9V360.4z"/>
<path class="st0" d="M482.5,375.7c0,2.1,0,4.3,0,6.4c0,2.8,1.4,4.7,4.1,5.4c1.4,0.3,2.9,0.5,4.4,0.3c3.4-0.4,5.6-1.8,5.8-5.6  c0.2-4.4,0.1-8.9,0-13.3c-0.1-2.3-1.1-4.2-3.5-5c-1.9-0.7-3.9-0.7-5.9-0.4c-3.3,0.6-4.9,2.6-4.9,5.9  C482.5,371.5,482.5,373.6,482.5,375.7 M500.8,375.7c0,2-0.1,3.9,0,5.9c0.2,5.6-3.1,8.9-8.2,9.7c-2.7,0.4-5.4,0.4-8-0.5  c-3.8-1.2-6.1-4.2-6.1-8.2c-0.1-4.6,0-9.2,0-13.8c0.1-4.8,2.8-7.9,7.7-8.8c3-0.6,6-0.5,8.9,0.5c3.7,1.3,5.7,4.2,5.7,8.1  C500.8,371.1,500.8,373.4,500.8,375.7"/>
<path class="st0" d="M342.3,380.1c-1.8-5.5-3.5-11-5.4-16.7c-1.8,5.7-3.6,11.2-5.4,16.7H342.3z M349.9,391.1c-1.2,0-2.3,0.1-3.4,0  c-0.3,0-0.7-0.5-0.8-0.8c-0.7-1.9-1.4-3.8-2-5.8c-0.2-0.6-0.5-0.8-1.1-0.8c-3.8,0-7.6,0-11.4,0c-0.7,0-1,0.2-1.2,0.9  c-0.6,1.9-1.3,3.8-1.9,5.7c-0.2,0.6-0.5,0.9-1.2,0.9c-1-0.1-2,0-3.1,0c0.5-1.7,1-3.2,1.5-4.7c2.6-7.6,5.1-15.3,7.7-22.9  c0.1-0.3,0.2-0.5,0.4-0.8c0.3-0.8,0.4-1.9,1-2.3c0.6-0.4,1.7-0.1,2.6-0.1c2.5,0,2.6,0,3.4,2.4c3.1,9.2,6.2,18.5,9.4,27.7  C349.9,390.5,349.9,390.7,349.9,391.1"/>
<path class="st0" d="M419.7,360.3v3.5h-1.3c-3.9,0-7.8,0-11.8,0c-0.8,0-1.1,0.2-1.1,1.1c0,2.8,0,5.7,0,8.6h13.1v3.5h-13v10.5h14.1  v3.5h-18v-30.7H419.7z"/>
<path class="st0" d="M578.4,386.8c1.8,0.3,3.5,0.8,5.2,1c2.2,0.2,4.4,0.2,6.6-0.1c1.8-0.2,2.7-1.4,2.8-3.2c0.1-1.1,0-2.1,0-3.2  c0-1.2-0.5-2.2-1.7-2.6c-1.9-0.6-3.8-1.1-5.7-1.7c-1.3-0.4-2.6-0.8-3.8-1.2c-1.8-0.7-3-2-3.1-3.9c-0.2-2.1-0.3-4.1-0.1-6.2  c0.2-3,2.1-4.7,5-5.4c4.2-0.9,8.3-0.4,12.4,0.4c0.2,0,0.6,0.4,0.5,0.7c0,0.9-0.2,1.8-0.2,2.8c-1.8-0.2-3.6-0.5-5.3-0.6  c-1.8-0.1-3.7-0.1-5.5,0.1c-2,0.2-2.9,1.3-3,3.3c0,1,0,2,0,3c0,1.4,0.6,2.4,1.9,2.8c1.9,0.6,3.9,1.1,5.9,1.7c1.1,0.3,2.1,0.7,3.2,1  c2.3,0.8,3.6,2.4,3.7,4.8c0.1,1.9,0,3.9-0.2,5.9c-0.3,2.6-1.9,4.3-4.4,4.9c-4.7,1.2-9.3,0.7-13.9-0.8c-0.2-0.1-0.6-0.5-0.5-0.8  C577.9,388.5,578.2,387.7,578.4,386.8"/>
<path class="st0" d="M280.3,360.3v3.4c-0.4,0-0.8,0-1.1,0.1c-4,0-8,0-12,0c-1,0-1.2,0.3-1.2,1.3c0,2.7,0,5.3,0,8  c0,0.9,0.3,1.1,1.1,1.1c3.6,0,7.3,0,10.9,0h1.4v3.6h-13.3V391h-4v-30.6H280.3z"/>
<path class="st0" d="M551.3,375.4c3.6-4.9,7.1-9.8,10.7-14.6c0.2-0.3,0.6-0.5,0.9-0.5c1.3-0.1,2.7,0,4.2,0  c-3.8,5.1-7.5,10.1-11.3,15.1c4,5.2,8,10.3,12.2,15.7c-1.7,0-3.1,0-4.6,0c-0.2,0-0.4-0.3-0.6-0.5C559,385.5,555.2,380.4,551.3,375.4  "/>
<rect x="546.4" y="360.3" class="st0" width="3.8" height="30.7"/>
<path class="st0" d="M612.7,263.5h1.3c0.6,0,1-0.1,1.2-0.3c0.2-0.2,0.3-0.4,0.3-0.7c0-0.2-0.1-0.4-0.2-0.5c-0.1-0.1-0.3-0.3-0.5-0.3  c-0.2-0.1-0.5-0.1-1.1-0.1h-1.2V263.5z M611.6,267.2v-6.5h2.2c0.8,0,1.3,0.1,1.7,0.2c0.3,0.1,0.6,0.3,0.8,0.6c0.2,0.3,0.3,0.6,0.3,1  c0,0.5-0.2,0.9-0.5,1.2c-0.3,0.3-0.8,0.6-1.4,0.6c0.2,0.1,0.4,0.2,0.6,0.3c0.3,0.3,0.6,0.7,1,1.3l0.8,1.3h-1.3l-0.6-1  c-0.5-0.8-0.8-1.3-1.1-1.5c-0.2-0.1-0.5-0.2-0.8-0.2h-0.6v2.8H611.6z M614.3,258.8c-0.9,0-1.7,0.2-2.5,0.7c-0.8,0.4-1.4,1.1-1.9,1.9  c-0.4,0.8-0.7,1.7-0.7,2.5c0,0.9,0.2,1.7,0.7,2.5c0.4,0.8,1.1,1.4,1.9,1.9c0.8,0.5,1.6,0.7,2.5,0.7c0.9,0,1.7-0.2,2.5-0.7  c0.8-0.4,1.4-1.1,1.9-1.9c0.4-0.8,0.7-1.6,0.7-2.5c0-0.9-0.2-1.7-0.7-2.5c-0.4-0.8-1.1-1.4-1.9-1.9C616,259,615.1,258.8,614.3,258.8   M614.3,257.8c1,0,2,0.3,3,0.8c1,0.5,1.7,1.3,2.3,2.2c0.5,1,0.8,2,0.8,3c0,1-0.3,2-0.8,3c-0.5,1-1.3,1.7-2.2,2.2c-1,0.5-2,0.8-3,0.8  c-1,0-2.1-0.3-3-0.8c-1-0.5-1.7-1.3-2.2-2.2c-0.5-1-0.8-2-0.8-3c0-1.1,0.3-2.1,0.8-3c0.6-1,1.3-1.7,2.3-2.2  C612.3,258,613.3,257.8,614.3,257.8"/>
</svg>